<svg width="40" height="41" viewBox="0 0 40 41" fill="none" xmlns="http://www.w3.org/2000/svg">
<path fill-rule="evenodd" clip-rule="evenodd" d="M19.9768 1.05027C19.9504 1.1534 19.7747 2.52027 19.5864 4.08777C19.3981 5.65527 19.0244 8.7434 18.7558 10.9503C18.4872 13.1571 18.2313 15.2665 18.187 15.6378C18.1427 16.009 18.098 16.3227 18.0874 16.3347C18.0769 16.3469 16.9954 15.8828 15.6841 15.3035C14.3727 14.7243 13.292 14.2587 13.2826 14.269C13.2731 14.2794 13.7344 15.3501 14.3076 16.6485C14.8808 17.9469 15.3498 19.03 15.3498 19.0555C15.3498 19.081 15.0376 19.136 14.6561 19.1778C11.3251 19.5427 -0.0751454 20.9737 0.0290296 21.0139C0.102305 21.0423 0.617929 21.1182 1.1748 21.1827C2.90505 21.3831 8.3811 22.0401 9.0123 22.123C9.60563 22.2009 12.9775 22.6086 13.7748 22.6989C14.0017 22.7246 14.2379 22.7544 14.2998 22.7652C14.3617 22.776 14.6233 22.809 14.8811 22.8387C15.1389 22.8684 15.3498 22.9141 15.3498 22.9402C15.3497 22.9664 14.9081 23.9834 14.3684 25.2003C13.8286 26.4171 13.3569 27.4888 13.3202 27.5818C13.24 27.7845 12.9457 27.898 15.8963 26.5887C17.0837 26.0617 18.0671 25.6435 18.0816 25.6592C18.1062 25.6857 19.075 33.5841 19.672 38.6253C19.8161 39.8421 19.9577 40.8988 19.9868 40.9732C20.0158 41.0478 20.2197 39.6134 20.4398 37.7857C20.66 35.9581 21.0018 33.1465 21.1993 31.5378C21.3968 29.929 21.6371 27.9462 21.7333 27.1315C21.8295 26.3168 21.9304 25.6503 21.9574 25.6503C21.9844 25.6503 23.0653 26.1195 24.3594 26.6931C25.6535 27.2667 26.7196 27.7292 26.7284 27.7208C26.7461 27.7041 25.731 25.379 25.1043 24.0003C24.8886 23.5259 24.6956 23.084 24.6753 23.0184C24.6353 22.8885 24.3871 22.9264 28.5498 22.4261C29.6017 22.2996 31.5592 22.062 32.8998 21.8979C34.2404 21.7338 36.3498 21.4796 37.5873 21.3329C38.8248 21.1862 39.8993 21.042 39.9751 21.0123C40.0549 20.9811 39.519 20.8873 38.7001 20.7891C37.9231 20.6959 34.6717 20.303 31.4748 19.9159C28.2779 19.5288 25.4345 19.1887 25.1561 19.16C24.8777 19.1313 24.6498 19.0913 24.6498 19.0711C24.6498 19.0234 26.507 14.8039 26.651 14.5246C26.7114 14.4073 26.7479 14.2984 26.7322 14.2827C26.7164 14.2669 25.6439 14.7234 24.3489 15.2971C23.0538 15.8708 21.9719 16.3263 21.9444 16.3095C21.917 16.2925 21.8714 16.0669 21.8432 15.8082C21.773 15.1666 20.1933 2.15217 20.0837 1.31277C20.0385 0.967249 20.0138 0.906274 19.9768 1.05027ZM17.0748 7.65665C14.8814 8.15128 12.7098 9.25745 10.983 10.7598C9.24638 12.2707 7.82115 14.4222 7.07153 16.6647C6.79628 17.488 6.4344 19.0849 6.5067 19.1572C6.54308 19.1935 8.7771 18.9451 9.17348 18.8606C9.29715 18.8342 9.35625 18.7346 9.42758 18.432C10.0287 15.8841 11.6451 13.556 13.8924 12.0018C14.8866 11.3142 15.938 10.8564 17.6748 10.3551C17.8564 10.3026 17.8675 10.2608 18.0245 9.03185C18.1138 8.3339 18.1898 7.70375 18.1933 7.63152C18.2018 7.45992 17.9193 7.46623 17.0748 7.65665ZM21.8321 7.74402C21.8536 7.87805 21.9238 8.4434 21.9881 9.00027C22.0524 9.55715 22.1195 10.0803 22.1372 10.1628C22.1628 10.2828 22.3234 10.3545 22.9408 10.5215C26.5841 11.507 29.533 14.4907 30.5004 18.1705C30.7004 18.9312 30.5486 18.8479 32.0373 19.0142C32.6148 19.0788 33.1801 19.1497 33.2936 19.1719C33.4796 19.2082 33.4997 19.1914 33.4991 19C33.4982 18.6954 33.1738 17.3159 32.938 16.6128C32.6554 15.7707 31.867 14.1807 31.3575 13.4253C29.3491 10.4478 26.2469 8.3426 22.8464 7.6496C21.8213 7.44065 21.784 7.4441 21.8321 7.74402ZM19.4748 17.8635C18.5337 18.0075 17.5777 18.7323 17.1305 19.6407C16.9283 20.0512 16.8888 20.2251 16.8629 20.8161C16.8173 21.8602 17.108 22.598 17.8397 23.295C18.4624 23.888 19.1368 24.1503 20.0392 24.1503C22.322 24.1503 23.8454 21.7596 22.8911 19.6749C22.2872 18.356 20.9363 17.6397 19.4748 17.8635ZM6.5301 23.1741C6.62378 23.8804 7.01565 25.2618 7.3665 26.1226C9.01238 30.1606 12.5324 33.2141 16.7084 34.2264C17.1368 34.3303 17.6527 34.439 17.8548 34.4679L18.2223 34.5207L18.1758 34.1917C18.1502 34.0108 18.0717 33.369 18.0012 32.7655L17.8732 31.6682L17.4552 31.5751C15.6773 31.1789 13.7038 30.0674 12.3182 28.6818C11.5528 27.9164 10.7663 26.8304 10.2857 25.8753C9.99195 25.2913 9.53205 24.0382 9.4308 23.5457L9.34508 23.1287L8.20365 22.9962C7.5759 22.9234 6.93068 22.8444 6.76988 22.8207L6.47745 22.7775L6.5301 23.1741ZM31.9258 22.9786L30.6895 23.1378L30.4981 23.8503C30.0627 25.4715 29.3981 26.7192 28.2335 28.1021C26.858 29.7353 24.6671 31.0773 22.5681 31.5725C22.2655 31.6438 22.1659 31.7029 22.1395 31.8266C22.055 32.223 21.8066 34.457 21.8429 34.4934C21.8651 34.5157 22.2611 34.457 22.7228 34.3631C27.975 33.2944 32.1286 29.2263 33.3178 23.986C33.4179 23.545 33.4998 23.0978 33.4998 22.9923C33.4998 22.7632 33.592 22.7641 31.9258 22.9786Z" fill="white"/>
</svg>
