<svg width="12" height="12" viewBox="0 0 12 12" fill="none" xmlns="http://www.w3.org/2000/svg">
<path d="M0.46967 10.1083C0.176777 10.4012 0.176777 10.8761 0.46967 11.169C0.762563 11.4619 1.23744 11.4619 1.53033 11.169L0.46967 10.1083ZM11.3891 0.999584C11.3891 0.585371 11.0533 0.249584 10.6391 0.249584H3.88909C3.47487 0.249584 3.13909 0.585371 3.13909 0.999584C3.13909 1.4138 3.47487 1.74958 3.88909 1.74958L9.88909 1.74958L9.88909 7.74958C9.88909 8.1638 10.2249 8.49958 10.6391 8.49958C11.0533 8.49958 11.3891 8.1638 11.3891 7.74958V0.999584ZM1.53033 11.169L6.34987 6.34946L5.28921 5.2888L0.46967 10.1083L1.53033 11.169ZM6.34987 6.34946L11.1694 1.52991L10.1088 0.469254L5.28921 5.2888L6.34987 6.34946Z" fill="#00FFAA"/>
</svg>
