<svg width="43" height="43" viewBox="0 0 43 43" fill="none" xmlns="http://www.w3.org/2000/svg">
<circle cx="21.5" cy="21.5" r="21.5" fill="#01FFAA"/>
<path d="M21 7C14.2248 7 8.71877 11.1649 7.33976 16.8881L13.4154 18.6448C13.965 15.3487 17.0428 12.9782 21 12.9782C25.3769 12.9782 28.6745 15.8681 28.6745 19.712V22.4697C28.6745 22.5452 28.5946 22.583 28.5246 22.5452C26.3462 21.138 23.758 20.2975 21 20.2975C13.1556 20.2975 7 25.6618 7 32.7828V33H13.3255V32.7828C13.3255 28.9484 16.6231 26.2757 21 26.2757C25.3769 26.2757 28.6745 28.9484 28.6745 32.7828V33H34.96H35V19.7025C35 12.5815 28.8444 7 21 7Z" fill="#111111"/>
</svg>
