<svg width="251" height="70" viewBox="0 0 251 70" fill="none" xmlns="http://www.w3.org/2000/svg">
<path d="M114.575 9.11583L92.55 68.9697H100.05L105.6 53.568H131.025L136.5 68.9697H144.1L122.175 9.11583H114.575ZM107.75 47.7579L118.325 18.6574L128.9 47.7579H107.75Z" fill="white"/>
<path d="M159.625 62.0327L146.925 26.5461H139.4L155.45 68.9697H163.725L179.775 26.5461H172.425L159.625 62.0327Z" fill="white"/>
<path d="M233.8 26.5461H226.625V68.9447H233.8V26.5461Z" fill="white"/>
<path d="M230.225 7.13739C228.8 7.13739 227.625 7.58817 226.675 8.51478C225.725 9.41635 225.275 10.5683 225.275 11.9457C225.275 13.3732 225.75 14.5503 226.675 15.5019C227.625 16.4536 228.8 16.9043 230.225 16.9043C231.6 16.9043 232.75 16.4285 233.725 15.5019C234.7 14.5503 235.175 13.3732 235.175 11.9457C235.175 10.5683 234.7 9.44139 233.725 8.51478C232.75 7.58817 231.575 7.13739 230.225 7.13739Z" fill="white"/>
<path d="M200.475 25.5193C197.45 25.5193 194.625 26.0703 191.95 27.1972C189.275 28.2991 187.05 29.927 185.25 32.0306C183.85 33.6835 182.9 35.6619 182.425 37.9158L189.475 39.8191C189.975 37.1395 191.25 35.111 193.275 33.7085C195.3 32.3061 197.7 31.6049 200.5 31.6049C203.75 31.6049 206.325 32.5565 208.275 34.4598C210.2 36.3631 211.175 39.168 211.175 42.8744V43.3753H199.725C194.025 43.3753 189.55 44.5523 186.25 46.8814C182.95 49.2104 181.3 52.5663 181.3 56.8737C181.3 59.2028 181.875 61.3816 183 63.36C184.15 65.3635 185.875 66.9412 188.2 68.1433C190.525 69.3454 193.475 69.9464 197 69.9464C200.875 69.9464 203.95 69.095 206.25 67.417C208.55 65.7391 210.3 63.6856 211.5 61.3064L211.925 68.9196H218.325V42.8744C218.325 37.6403 216.825 33.433 213.85 30.2525C210.85 27.097 206.375 25.5193 200.475 25.5193ZM211.15 49.0351C211.15 51.5395 210.65 53.9437 209.625 56.2226C208.6 58.5016 207.1 60.3548 205.15 61.7823C203.175 63.2097 200.85 63.911 198.1 63.911C195.15 63.911 192.85 63.2348 191.225 61.9075C189.6 60.5802 188.8 58.777 188.8 56.5732C188.8 54.4195 189.675 52.5913 191.4 51.1388C193.125 49.6863 196.1 48.96 200.325 48.96H211.175V49.0351H211.15Z" fill="white"/>
<path d="M250.025 9.11583H242.85V68.9697H250.025V9.11583Z" fill="white"/>
<path d="M35.025 0C18.075 0 4.3 11.0442 0.85 26.2205L16.05 30.8786C17.425 22.1384 25.125 15.8525 35.025 15.8525C45.975 15.8525 54.225 23.5158 54.225 33.7085V41.0212C54.225 41.2216 54.025 41.3217 53.85 41.2216C48.4 37.4901 41.925 35.2612 35.025 35.2612C15.4 35.2612 0 49.4859 0 68.3687V68.9447H15.825V68.3687C15.825 58.201 24.075 51.1137 35.025 51.1137C45.975 51.1137 54.225 58.201 54.225 68.3687V68.9447H69.95H70.05V33.6835C70.05 14.8007 54.65 0 35.025 0Z" fill="#00FFAA"/>
</svg>
