<svg width="33" height="48" viewBox="0 0 33 48" fill="none" xmlns="http://www.w3.org/2000/svg">
<path d="M6 15.1825V33.282M6 15.1825L16.5825 6M6 15.1825L11.3462 18.6856M6 33.282L16.5825 42M6 33.282L11.3462 29.885M16.5825 42L27 33.282M16.5825 42V34.4231M27 33.282V15.1825M27 33.282L22.0249 29.885M27 15.1825L16.5825 6M27 15.1825L22.0249 18.6856M16.5825 6V13.6299M16.5825 13.6299L11.3462 18.6856M16.5825 13.6299L22.0249 18.6856M11.3462 18.6856V29.885M11.3462 29.885L16.5825 34.4231M16.5825 34.4231L22.0249 29.885M22.0249 29.885V18.6856" stroke="#00FFAA"/>
<g filter="url(#filter0_f_83_310)">
<path d="M6 15.1825V33.282M6 15.1825L16.5825 6M6 15.1825L11.3462 18.6856M6 33.282L16.5825 42M6 33.282L11.3462 29.885M16.5825 42L27 33.282M16.5825 42V34.4231M27 33.282V15.1825M27 33.282L22.0249 29.885M27 15.1825L16.5825 6M27 15.1825L22.0249 18.6856M16.5825 6V13.6299M16.5825 13.6299L11.3462 18.6856M16.5825 13.6299L22.0249 18.6856M11.3462 18.6856V29.885M11.3462 29.885L16.5825 34.4231M16.5825 34.4231L22.0249 29.885M22.0249 29.885V18.6856" stroke="#00FFAA"/>
</g>
<defs>
<filter id="filter0_f_83_310" x="0.5" y="0.335938" width="32" height="47.3135" filterUnits="userSpaceOnUse" color-interpolation-filters="sRGB">
<feFlood flood-opacity="0" result="BackgroundImageFix"/>
<feBlend mode="normal" in="SourceGraphic" in2="BackgroundImageFix" result="shape"/>
<feGaussianBlur stdDeviation="2.5" result="effect1_foregroundBlur_83_310"/>
</filter>
</defs>
</svg>
