<svg width="23" height="40" viewBox="0 0 23 40" fill="none" xmlns="http://www.w3.org/2000/svg">
<path d="M1 11.1825V29.282M1 11.1825L11.5825 2M1 11.1825L6.3462 14.6856M1 29.282L11.5825 38M1 29.282L6.3462 25.885M11.5825 38L22 29.282M11.5825 38V30.4231M22 29.282V11.1825M22 29.282L17.0249 25.885M22 11.1825L11.5825 2M22 11.1825L17.0249 14.6856M11.5825 2V9.62993M11.5825 9.62993L6.3462 14.6856M11.5825 9.62993L17.0249 14.6856M6.3462 14.6856V25.885M6.3462 25.885L11.5825 30.4231M11.5825 30.4231L17.0249 25.885M17.0249 25.885V14.6856" stroke="white" stroke-width="2"/>
</svg>
