<svg width="95" height="36" viewBox="0 0 95 36" fill="none" xmlns="http://www.w3.org/2000/svg">
<path d="M1 35C2.36028 31.7714 5.42448 26.0271 6.79908 28.8791C8.51732 32.444 9.66282 24.776 10.8799 25.4487C12.097 26.1213 12.8845 29.2154 13.7436 29.9553C14.6028 30.6951 17.4665 22.4218 18.8984 23.1617C20.3303 23.9016 21.9053 27.332 23.0508 26.3903C24.1963 25.4487 24.8406 23.9016 26.2009 24.8433C27.2891 25.5966 28.4681 25.5608 28.9215 25.4487C30.0908 25.1796 33.1741 23.2559 36.1524 17.7134C39.8753 10.7853 38.2286 22.5563 42.2379 22.3545C46.2471 22.1528 44.8868 14.4175 47.0346 17.2425C49.1824 20.0676 48.8961 18.7896 49.5404 16.839C50.1848 14.8883 51.4018 5.67329 53.836 10.0454C56.2702 14.4175 56.3418 24.4397 58.9192 20.4711C60.9811 17.2963 63.0239 22.0631 63.7875 24.8433C64.6466 28.8118 66.7515 35.3901 68.2979 29.9553C69.8443 24.5204 71.806 26.3903 72.5935 28.0046C74.1209 29.6413 77.4189 30.6278 78.3926 21.4801C79.3663 12.3323 79.8483 8.92431 79.9677 8.36378C80.5165 4.19345 82.0582 -1.49703 83.8337 9.10367C85.6092 19.7044 87.4373 14.9108 88.1293 11.1889C88.9407 7.01855 91.2508 -0.783971 94 1.36845" stroke="#00FFAA"/>
</svg>
